<?xml version="1.0" encoding="UTF-8"?>
<svg version="1.1" xmlns="http://www.w3.org/2000/svg" width="198" height="185">
<path d="M0 0 C65.34 0 130.68 0 198 0 C198 61.05 198 122.1 198 185 C132.66 185 67.32 185 0 185 C0 123.95 0 62.9 0 0 Z " fill="#010101" transform="translate(0,0)"/>
<path d="M0 0 C15.74188837 -0.04667656 31.48375812 -0.08196748 47.22569847 -0.10362434 C54.53460373 -0.11394632 61.84346605 -0.12802417 69.15234375 -0.15087891 C75.5211746 -0.17078467 81.88997435 -0.18370973 88.25883543 -0.18817699 C91.6325405 -0.19078916 95.00615661 -0.19694785 98.37983322 -0.21146011 C102.14178587 -0.22589009 105.90355167 -0.22798151 109.66552734 -0.22705078 C110.78977615 -0.23424133 111.91402496 -0.24143188 113.07234192 -0.24884033 C114.09320389 -0.246091 115.11406586 -0.24334167 116.16586304 -0.24050903 C117.05631506 -0.24235262 117.94676708 -0.24419621 118.8642025 -0.24609566 C121 0 121 0 123 2 C124.54091625 9.24801347 125.29607817 16.59804584 125 24 C121.17377257 22.4411666 118.74852621 20.04566418 116 17 C115.505 15.515 115.505 15.515 115 14 C112.02496878 12.84164327 112.02496878 12.84164327 109 12 C108.505 11.505 108.505 11.505 108 11 C107.67 20.57 107.34 30.14 107 40 C105.68 40 104.36 40 103 40 C102.66226563 39.10796875 102.32453125 38.2159375 101.9765625 37.296875 C101.53054687 36.12640625 101.08453125 34.9559375 100.625 33.75 C100.18414062 32.58984375 99.74328125 31.4296875 99.2890625 30.234375 C98.1126581 27.12457912 98.1126581 27.12457912 96.8359375 24.765625 C96 23 96 23 96 20 C95.34 20 94.68 20 94 20 C93.65388672 19.07767578 93.65388672 19.07767578 93.30078125 18.13671875 C91.2822328 13.1144195 91.2822328 13.1144195 87.875 9 C83.92279451 7.50021547 83.92279451 7.50021547 75 7 C75 19.54 75 32.08 75 45 C84.71659991 44.21962643 84.71659991 44.21962643 92.4140625 39.2734375 C93.01347656 38.33371094 93.01347656 38.33371094 93.625 37.375 C94.8515625 35.4609375 94.8515625 35.4609375 96 34 C96.66 34 97.32 34 98 34 C99.46098845 36.9219769 99.11134901 39.49893475 99.09765625 42.7578125 C99.0962413 43.42086395 99.09482635 44.08391541 99.09336853 44.76705933 C99.08776754 46.88641863 99.075215 49.00567259 99.0625 51.125 C99.05748512 52.56119639 99.05292219 53.99739444 99.04882812 55.43359375 C99.03779782 58.95576345 99.02053259 62.47787145 99 66 C97.515 65.505 97.515 65.505 96 65 C95.690625 64.195625 95.38125 63.39125 95.0625 62.5625 C93.78692643 59.48611668 92.96607556 59.25833509 90 58 C89.59007813 57.50113281 89.18015625 57.00226563 88.7578125 56.48828125 C86.22106401 54.34050086 84.08682505 54.48853898 80.8125 54.3125 C79.72582031 54.24675781 78.63914062 54.18101563 77.51953125 54.11328125 C76.68808594 54.07589844 75.85664062 54.03851563 75 54 C75.11751318 61.20837446 75.24234628 68.41659527 75.37231445 75.62475586 C75.41567602 78.07785149 75.45735019 80.53097753 75.49731445 82.98413086 C75.55498721 86.50644101 75.61869052 90.02859784 75.68359375 93.55078125 C75.70030624 94.65086014 75.71701874 95.75093903 75.73423767 96.88435364 C75.7641555 98.41560127 75.7641555 98.41560127 75.79467773 99.9777832 C75.81799416 101.32680473 75.81799416 101.32680473 75.84178162 102.70307922 C75.91487339 105.16176469 75.91487339 105.16176469 77 108 C79.64 108.33 82.28 108.66 85 109 C85.33 110.32 85.66 111.64 86 113 C64.55 113 43.1 113 21 113 C21 112.01 21 111.02 21 110 C25.62 109.67 30.24 109.34 35 109 C35.33 74.02 35.66 39.04 36 3 C24.87527735 4.45477401 24.87527735 4.45477401 16 10 C14.64663567 12.2995961 14.64663567 12.2995961 14 15 C12.11097553 19.1938151 9.97291291 23.08158734 7.375 26.875 C4.51362666 31.29472129 3.70800619 35.84317876 3 41 C1.35 40.67 -0.3 40.34 -2 40 C-2.27858313 6.8357494 -2.27858313 6.8357494 0 0 Z " fill="#6669CF" transform="translate(32,21)"/>
<path d="M0 0 C4.95 0 9.9 0 15 0 C18.00827861 3.00827861 18.12281659 5.95856717 18.14044189 10.08517456 C18.14615204 10.88976105 18.15186218 11.69434753 18.15774536 12.52331543 C18.15886322 13.39717896 18.15998108 14.27104248 18.16113281 15.17138672 C18.16858017 16.5623204 18.16858017 16.5623204 18.17617798 17.98135376 C18.19077734 21.04747257 18.19759747 24.11353965 18.203125 27.1796875 C18.20887773 29.31194052 18.21463545 31.44419354 18.22039795 33.57644653 C18.23090122 38.0468978 18.23674848 42.51733111 18.24023438 46.98779297 C18.24572147 52.71327375 18.26975708 58.43851701 18.29820633 64.16392326 C18.31683722 68.56829521 18.32203853 72.97260995 18.32357025 77.37701797 C18.32659564 79.48771592 18.33462033 81.59841288 18.34775543 83.70907211 C18.36482714 86.6628398 18.36293296 89.61602709 18.35644531 92.56982422 C18.37026749 93.87454681 18.37026749 93.87454681 18.3843689 95.20562744 C18.35002062 100.20277437 17.82615596 103.69664589 15 108 C11.45986775 110.36008817 9.98878045 110.23463644 5.80078125 110.1953125 C4.59228516 110.18886719 3.38378906 110.18242187 2.13867188 110.17578125 C0.2447168 110.15064453 0.2447168 110.15064453 -1.6875 110.125 C-2.96173828 110.11597656 -4.23597656 110.10695313 -5.54882812 110.09765625 C-8.69940627 110.07405641 -11.84960983 110.04113194 -15 110 C-15 109.34 -15 108.68 -15 108 C-10.38 107.67 -5.76 107.34 -1 107 C-0.67 71.69 -0.34 36.38 0 0 Z " fill="#F5F5F4" transform="translate(68,23)"/>
<path d="M0 0 C9.35307611 -0.04627898 18.70611299 -0.08184653 28.05927849 -0.10362434 C32.40202749 -0.114075 36.74469833 -0.12825747 41.08740234 -0.15087891 C45.27598975 -0.17256174 49.46450184 -0.18455896 53.65314102 -0.18975449 C55.2535839 -0.19345847 56.85402251 -0.20069113 58.45443344 -0.21146011 C60.69090532 -0.22591463 62.92706337 -0.22798051 65.16357422 -0.22705078 C66.43820526 -0.231492 67.7128363 -0.23593323 69.02609253 -0.24050903 C72 0 72 0 74 2 C75.54091625 9.24801347 76.29607817 16.59804584 76 24 C72.17377257 22.4411666 69.74852621 20.04566418 67 17 C66.505 15.515 66.505 15.515 66 14 C63.02496878 12.84164327 63.02496878 12.84164327 60 12 C59.505 11.505 59.505 11.505 59 11 C58.67 20.57 58.34 30.14 58 40 C56.68 40 55.36 40 54 40 C53.66226563 39.10796875 53.32453125 38.2159375 52.9765625 37.296875 C52.53054687 36.12640625 52.08453125 34.9559375 51.625 33.75 C51.18414062 32.58984375 50.74328125 31.4296875 50.2890625 30.234375 C49.1126581 27.12457912 49.1126581 27.12457912 47.8359375 24.765625 C47 23 47 23 47 20 C46.34 20 45.68 20 45 20 C44.65388672 19.07767578 44.65388672 19.07767578 44.30078125 18.13671875 C42.2822328 13.1144195 42.2822328 13.1144195 38.875 9 C34.92279451 7.50021547 34.92279451 7.50021547 26 7 C26 19.54 26 32.08 26 45 C35.71659991 44.21962643 35.71659991 44.21962643 43.4140625 39.2734375 C43.81367187 38.64695313 44.21328125 38.02046875 44.625 37.375 C45.8515625 35.4609375 45.8515625 35.4609375 47 34 C47.66 34 48.32 34 49 34 C50.46098845 36.9219769 50.11134901 39.49893475 50.09765625 42.7578125 C50.0962413 43.42086395 50.09482635 44.08391541 50.09336853 44.76705933 C50.08776754 46.88641863 50.075215 49.00567259 50.0625 51.125 C50.05748512 52.56119639 50.05292219 53.99739444 50.04882812 55.43359375 C50.03779782 58.95576345 50.02053259 62.47787145 50 66 C49.01 65.67 48.02 65.34 47 65 C46.690625 64.195625 46.38125 63.39125 46.0625 62.5625 C44.78692643 59.48611668 43.96607556 59.25833509 41 58 C40.59007812 57.50113281 40.18015625 57.00226563 39.7578125 56.48828125 C37.22106401 54.34050086 35.08682505 54.48853898 31.8125 54.3125 C30.72582031 54.24675781 29.63914062 54.18101563 28.51953125 54.11328125 C27.27236328 54.05720703 27.27236328 54.05720703 26 54 C26.11751318 61.20837446 26.24234628 68.41659527 26.37231445 75.62475586 C26.41567602 78.07785149 26.45735019 80.53097753 26.49731445 82.98413086 C26.55498721 86.50644101 26.61869052 90.02859784 26.68359375 93.55078125 C26.70030624 94.65086014 26.71701874 95.75093903 26.73423767 96.88435364 C26.75418289 97.90518539 26.77412811 98.92601715 26.79467773 99.9777832 C26.81799416 101.32680473 26.81799416 101.32680473 26.84178162 102.70307922 C26.91487339 105.16176469 26.91487339 105.16176469 28 108 C30.64 108.33 33.28 108.66 36 109 C36 109.33 36 109.66 36 110 C33.03 110 30.06 110 27 110 C27 110.66 27 111.32 27 112 C25.02 112 23.04 112 21 112 C22.98 111.505 22.98 111.505 25 111 C24.83766876 110.21239792 24.67533752 109.42479584 24.50808716 108.61332703 C23.87493796 104.11060526 23.86049139 99.72753383 23.87060547 95.18676758 C23.86885315 94.21535324 23.86710083 93.2439389 23.86529541 92.24308777 C23.86090664 89.04355057 23.86380373 85.84406897 23.8671875 82.64453125 C23.86651377 80.41826873 23.86554317 78.19200629 23.86428833 75.96574402 C23.86281553 71.30633848 23.86495313 66.64695214 23.86962891 61.98754883 C23.87533588 56.00857173 23.87203842 50.02963942 23.86605644 44.05066395 C23.86244805 39.45683961 23.86359053 34.86302594 23.86618423 30.26920128 C23.86685222 28.06393109 23.86602956 25.85865995 23.86370468 23.65339088 C23.86117256 20.5772506 23.86502628 17.50118363 23.87060547 14.42504883 C23.86858124 13.51018707 23.86655701 12.59532532 23.86447144 11.65274048 C23.86870117 10.39743782 23.86870117 10.39743782 23.87301636 9.11677551 C23.87339338 8.38989942 23.87377041 7.66302332 23.87415886 6.91412067 C24 5 24 5 25 2 C24.02389771 2.01571045 24.02389771 2.01571045 23.02807617 2.03173828 C20.0812567 2.07329835 17.13449889 2.09932608 14.1875 2.125 C12.65125977 2.15013672 12.65125977 2.15013672 11.08398438 2.17578125 C10.10107422 2.18222656 9.11816406 2.18867188 8.10546875 2.1953125 C7.19949951 2.20578613 6.29353027 2.21625977 5.36010742 2.22705078 C3 2 3 2 0 0 Z " fill="#3C6E81" transform="translate(81,21)"/>
<path d="M0 0 C6.9234133 -0.02531927 13.84681469 -0.04285389 20.77026367 -0.05493164 C23.126388 -0.05996575 25.4825092 -0.06679346 27.83862305 -0.07543945 C31.2218503 -0.0875453 34.60503632 -0.09323749 37.98828125 -0.09765625 C39.57277824 -0.10539818 39.57277824 -0.10539818 41.18928528 -0.11329651 C42.17007553 -0.11337204 43.15086578 -0.11344757 44.16137695 -0.11352539 C45.45710381 -0.11685631 45.45710381 -0.11685631 46.77900696 -0.12025452 C49 0 49 0 52 1 C54.05893621 1.22325814 56.12233653 1.40705759 58.1875 1.5625 C59.27417969 1.64628906 60.36085937 1.73007812 61.48046875 1.81640625 C62.72763672 1.90728516 62.72763672 1.90728516 64 2 C64 3.32 64 4.64 64 6 C63.34 6.33 62.68 6.66 62 7 C58.76881503 12.04422833 58.58339426 16.16270725 58.65942383 21.94287109 C58.65898575 22.8215686 58.65854767 23.70026611 58.65809631 24.60559082 C58.66017775 27.49510312 58.68347836 30.3840272 58.70703125 33.2734375 C58.7126295 35.2826811 58.71689851 37.29192881 58.71989441 39.30117798 C58.73132515 44.57842398 58.7607772 49.85542059 58.79400635 55.13256836 C58.82474536 60.52193834 58.83840794 65.91134879 58.85351562 71.30078125 C58.88564851 81.86729681 58.93682353 92.43362763 59 103 C59.99 103 60.98 103 62 103 C62 104.32 62 105.64 62 107 C62.66 107 63.32 107 64 107 C64 107.99 64 108.98 64 110 C61.69 110 59.38 110 57 110 C57 107.36 57 104.72 57 102 C56.34 102 55.68 102 55 102 C55.04125 102.928125 55.0825 103.85625 55.125 104.8125 C55 108 55 108 53 111 C60.59 111.33 68.18 111.66 76 112 C76 111.34 76 110.68 76 110 C79.3 110 82.6 110 86 110 C86 110.99 86 111.98 86 113 C64.55 113 43.1 113 21 113 C21 112.67 21 112.34 21 112 C21.80219971 111.97494385 22.60439941 111.9498877 23.4309082 111.92407227 C27.05827074 111.80817957 30.68536917 111.68542249 34.3125 111.5625 C35.57513672 111.52318359 36.83777344 111.48386719 38.13867188 111.44335938 C39.34716797 111.40146484 40.55566406 111.35957031 41.80078125 111.31640625 C42.91622314 111.27974854 44.03166504 111.24309082 45.1809082 111.20532227 C48.07873571 111.11068791 48.07873571 111.11068791 51 110 C53.38719926 104.95769307 53.28422245 100.04020562 53.25878906 94.58569336 C53.2622937 93.65650589 53.26579834 92.72731842 53.26940918 91.76997375 C53.2781853 88.70985361 53.27239233 85.6499661 53.265625 82.58984375 C53.26697272 80.45805314 53.26891414 78.32626283 53.27142334 76.19447327 C53.27436893 71.73175117 53.27009466 67.26910925 53.26074219 62.80639648 C53.24934112 57.08763984 53.25591492 51.36907079 53.26788712 45.65032101 C53.27511503 41.25027554 53.2728136 36.85027454 53.26763153 32.45022774 C53.26629798 30.34150737 53.26793245 28.23278295 53.27259064 26.12406731 C53.27767186 23.17757345 53.26992334 20.23138335 53.25878906 17.28491211 C53.26283752 16.41464386 53.26688599 15.54437561 53.27105713 14.6477356 C53.24073202 10.31397918 53.02285933 6.94711069 51 3 C32.28065219 2.09364577 32.28065219 2.09364577 16 10 C14.64663567 12.2995961 14.64663567 12.2995961 14 15 C12.11097553 19.1938151 9.97291291 23.08158734 7.375 26.875 C4.51362666 31.29472129 3.70800619 35.84317876 3 41 C1.35 40.67 -0.3 40.34 -2 40 C-2.27858313 6.8357494 -2.27858313 6.8357494 0 0 Z " fill="#7064D6" transform="translate(32,21)"/>
<path d="M0 0 C11.68421053 0 11.68421053 0 16 4 C18.00643742 7.27718112 19 9.15240462 19 13 C19.66 13 20.32 13 21 13 C22.03028044 15.45475514 23.04945504 17.91314351 24.0625 20.375 C24.35705078 21.07367188 24.65160156 21.77234375 24.95507812 22.4921875 C25.69591098 24.30504908 26.35396964 26.15123143 27 28 C26.67 28.66 26.34 29.32 26 30 C25.84504237 32.24974161 25.74989072 34.50371536 25.68359375 36.7578125 C25.66281265 37.42086395 25.64203156 38.08391541 25.62062073 38.76705933 C25.55520769 40.88626694 25.49627895 43.005599 25.4375 45.125 C25.39430691 46.56121081 25.35069236 47.99740902 25.30664062 49.43359375 C25.19953501 52.95559594 25.09824425 56.47773825 25 60 C23.515 60.495 23.515 60.495 22 61 C18.91910327 58.22719294 17.31224548 55.93673644 16 52 C19.76854223 53.25618074 20.07958456 54.66014706 22 58 C22.66 58.33 23.32 58.66 24 59 C23.67 48.44 23.34 37.88 23 27 C22.34 27 21.68 27 21 27 C20.7525 27.556875 20.505 28.11375 20.25 28.6875 C18.16257024 32.54924506 16.32884009 35.35103158 12.3125 37.3125 C9 38 9 38 0 38 C0 25.46 0 12.92 0 0 Z " fill="#050307" transform="translate(107,28)"/>
<path d="M0 0 C7.26 0 14.52 0 22 0 C21.67 1.32 21.34 2.64 21 4 C20.05125 4.45375 19.1025 4.9075 18.125 5.375 C14.20263255 7.41463108 13.67375021 8.96778358 12 13 C10.0400105 17.15208302 7.97365202 21.10661571 5.4375 24.9375 C2.78934342 29.04868136 1.3331253 33.31780383 0 38 C-0.66 38 -1.32 38 -2 38 C-2 28.76 -2 19.52 -2 10 C-1.34 10 -0.68 10 0 10 C0 6.7 0 3.4 0 0 Z " fill="#ECECEC" transform="translate(34,23)"/>
<path d="M0 0 C6.51445205 -0.0505939 13.02885368 -0.08568856 19.54345703 -0.10986328 C21.76092421 -0.11993825 23.97837805 -0.13359859 26.19580078 -0.15087891 C29.37796312 -0.17506163 32.55995024 -0.18646797 35.7421875 -0.1953125 C37.23599442 -0.21079636 37.23599442 -0.21079636 38.75997925 -0.22659302 C40.14118454 -0.22681961 40.14118454 -0.22681961 41.55029297 -0.22705078 C42.3630368 -0.231492 43.17578064 -0.23593323 44.01315308 -0.24050903 C46 0 46 0 48 2 C49.54091625 9.24801347 50.29607817 16.59804584 50 24 C46.17377257 22.4411666 43.74852621 20.04566418 41 17 C40.505 15.515 40.505 15.515 40 14 C37.02496878 12.84164327 37.02496878 12.84164327 34 12 C33.505 11.505 33.505 11.505 33 11 C32.67 14.3 32.34 17.6 32 21 C31.67 21 31.34 21 31 21 C30.67 16.05 30.34 11.1 30 6 C28.02 6 26.04 6 24 6 C24 4.35 24 2.7 24 1 C16.08 1 8.16 1 0 1 C0 0.67 0 0.34 0 0 Z " fill="#317F70" transform="translate(107,21)"/>
<path d="M0 0 C5.45769811 -0.11138159 10.61509359 0.08342019 16 1 C16 1.66 16 2.32 16 3 C17.32 3 18.64 3 20 3 C21.1555538 13.33807949 21.09776087 23.61562308 21 34 C19.68 34 18.36 34 17 34 C16.66226563 33.10796875 16.32453125 32.2159375 15.9765625 31.296875 C15.53054687 30.12640625 15.08453125 28.9559375 14.625 27.75 C14.18414062 26.58984375 13.74328125 25.4296875 13.2890625 24.234375 C12.1126581 21.12457912 12.1126581 21.12457912 10.8359375 18.765625 C10 17 10 17 10 14 C9.34 14 8.68 14 8 14 C7.63648437 13.09507813 7.63648437 13.09507813 7.265625 12.171875 C5.37494252 7.66332447 3.78686756 4.24588648 0 1 C0 0.67 0 0.34 0 0 Z " fill="#DBDFE0" transform="translate(118,27)"/>
<path d="M0 0 C0.02333058 13.80340887 0.04091354 27.6068147 0.05181217 41.41023922 C0.05704166 47.81899128 0.0641405 54.22773015 0.07543945 60.63647461 C0.08626599 66.81559441 0.09227634 72.99470148 0.09487724 79.17383003 C0.09673192 81.5370561 0.10035332 83.90028144 0.10573006 86.26350212 C0.11293738 89.56101896 0.11399107 92.85848247 0.11352539 96.15600586 C0.11712067 97.14358887 0.12071594 98.13117188 0.12442017 99.14868164 C0.1230455 100.04195663 0.12167084 100.93523163 0.12025452 101.85557556 C0.12117631 102.63633422 0.1220981 103.41709288 0.12304783 104.22151089 C0 106 0 106 -1 107 C-3.35313555 107.07271741 -5.70833668 107.08370868 -8.0625 107.0625 C-9.99802734 107.04896484 -9.99802734 107.04896484 -11.97265625 107.03515625 C-12.97167969 107.02355469 -13.97070312 107.01195312 -15 107 C-15 107.99 -15 108.98 -15 110 C6.12 110 27.24 110 49 110 C49 110.33 49 110.66 49 111 C27.55 111 6.1 111 -16 111 C-16 109.35 -16 107.7 -16 106 C-11.38 106 -6.76 106 -2 106 C-2 71.68 -2 37.36 -2 2 C-4.31 2.33 -6.62 2.66 -9 3 C-9.33 3.99 -9.66 4.98 -10 6 C-10.66 6 -11.32 6 -12 6 C-12 5.34 -12 4.68 -12 4 C-15.14191424 5.53604696 -18.08596738 7.05731159 -21 9 C-19.75768264 5.13501267 -17.37154242 3.66859382 -13.86328125 1.81640625 C-9.33897448 -0.165942 -4.84861755 -0.0268994 0 0 Z " fill="#3F3F44" transform="translate(68,24)"/>
<path d="M0 0 C0.66 0.33 1.32 0.66 2 1 C3.36707047 5.4901479 3.17281809 10.17809268 3.20532227 14.8293457 C3.21522186 15.70789719 3.22512146 16.58644867 3.23532104 17.49162292 C3.26682801 20.38631525 3.29165067 23.28102397 3.31640625 26.17578125 C3.33698511 28.18646158 3.35798183 30.19713767 3.37937927 32.20780945 C3.43450368 37.49313928 3.48395537 42.77850753 3.53222656 48.06390381 C3.58251198 53.45995492 3.63816127 58.85595042 3.69335938 64.25195312 C3.80082313 74.83458788 3.90229418 85.41727097 4 96 C3.34 96 2.68 96 2 96 C2.04125 96.928125 2.0825 97.85625 2.125 98.8125 C2 102 2 102 0 105 C7.59 105.33 15.18 105.66 23 106 C23 105.34 23 104.68 23 104 C26.3 104 29.6 104 33 104 C33 104.99 33 105.98 33 107 C11.55 107 -9.9 107 -32 107 C-32 106.67 -32 106.34 -32 106 C-31.19780029 105.97494385 -30.39560059 105.9498877 -29.5690918 105.92407227 C-25.94172926 105.80817957 -22.31463083 105.68542249 -18.6875 105.5625 C-17.42486328 105.52318359 -16.16222656 105.48386719 -14.86132812 105.44335938 C-13.65283203 105.40146484 -12.44433594 105.35957031 -11.19921875 105.31640625 C-10.08377686 105.27974854 -8.96833496 105.24309082 -7.8190918 105.20532227 C-4.92126429 105.11068791 -4.92126429 105.11068791 -2 104 C0.43974496 98.88958876 0.27151598 93.85605597 0.22705078 88.32275391 C0.22734283 87.36602783 0.22763489 86.40930176 0.22793579 85.42358398 C0.22654712 82.27448322 0.21100757 79.12562172 0.1953125 75.9765625 C0.19158073 73.78795501 0.18873453 71.59934584 0.18673706 69.41073608 C0.17911354 63.6600887 0.15947598 57.90954289 0.1373291 52.15893555 C0.11684311 46.28696059 0.10772945 40.41496917 0.09765625 34.54296875 C0.07622894 23.02860129 0.0421084 11.5143091 0 0 Z " fill="#9D94D5" transform="translate(85,27)"/>
<path d="M0 0 C16.69807545 -0.13210503 33.32268325 0.14498622 50 1 C50 2.65 50 4.3 50 6 C51.98 6 53.96 6 56 6 C56.495 7.485 56.495 7.485 57 9 C55.68 9 54.36 9 53 9 C53 8.34 53 7.68 53 7 C51.95199219 7 50.90398437 7 49.82421875 7 C41.44545994 7 33.3780344 6.83780344 25 6 C25 19.53 25 33.06 25 47 C28.63 47 32.26 47 36 47 C35.01 47.495 35.01 47.495 34 48 C34 49.32 34 50.64 34 52 C32.72125 52.144375 31.4425 52.28875 30.125 52.4375 C27.74307106 52.70642746 26.15547309 52.92226346 24 54 C23.97468073 47.0765867 23.95714611 40.15318531 23.94506836 33.22973633 C23.94003425 30.873612 23.93320654 28.5174908 23.92456055 26.16137695 C23.9124547 22.7781497 23.90676251 19.39496368 23.90234375 16.01171875 C23.89718246 14.95538742 23.89202118 13.89905609 23.88670349 12.81071472 C23.88659019 11.33952934 23.88659019 11.33952934 23.88647461 9.83862305 C23.884254 8.97480515 23.88203339 8.11098724 23.87974548 7.22099304 C24 5 24 5 25 2 C24.02389771 2.01571045 24.02389771 2.01571045 23.02807617 2.03173828 C20.0812567 2.07329835 17.13449889 2.09932608 14.1875 2.125 C12.65125977 2.15013672 12.65125977 2.15013672 11.08398438 2.17578125 C10.10107422 2.18222656 9.11816406 2.18867188 8.10546875 2.1953125 C7.19949951 2.20578613 6.29353027 2.21625977 5.36010742 2.22705078 C3 2 3 2 0 0 Z " fill="#556098" transform="translate(81,21)"/>
<path d="M0 0 C16.01993537 -0.02332916 32.03986526 -0.04097926 48.0598135 -0.05181217 C55.4976451 -0.05697509 62.93546617 -0.06401771 70.37329102 -0.07543945 C76.85381342 -0.08538641 83.33432819 -0.09185346 89.81485802 -0.09408849 C93.24830542 -0.09539558 96.681731 -0.0984813 100.11517143 -0.10573006 C103.94193821 -0.11374416 107.76868335 -0.11399113 111.59545898 -0.11352539 C112.74200455 -0.11712067 113.88855011 -0.12071594 115.06983948 -0.12442017 C116.6243129 -0.12235817 116.6243129 -0.12235817 118.21018982 -0.12025452 C119.11631232 -0.12117631 120.02243483 -0.1220981 120.95601559 -0.12304783 C123 0 123 0 124 1 C124.91696124 6.70553659 125.12022642 12.22913206 125 18 C123.20789224 14.88739179 122.68521547 12.38065683 122.4375 8.8125 C122.45010753 5.59996202 122.45010753 5.59996202 121 3 C119.43153881 2.89194335 117.85825535 2.85316214 116.28611755 2.84178162 C115.26663025 2.8319928 114.24714294 2.82220398 113.19676208 2.81211853 C112.068918 2.80636307 110.94107391 2.8006076 109.77905273 2.79467773 C108.00856064 2.77982834 108.00856064 2.77982834 106.20230103 2.76467896 C102.95660881 2.73842921 99.71092205 2.71659283 96.46518588 2.69667697 C93.07654048 2.67485448 89.68794048 2.64744757 86.29933167 2.62062073 C79.8784749 2.57064314 73.457593 2.52572318 67.03668696 2.48259836 C59.72842951 2.43326919 52.4202176 2.37833509 45.11200416 2.32291877 C30.07471186 2.20902099 15.0373767 2.10219902 0 2 C0 1.34 0 0.68 0 0 Z " fill="#1C2A2F" transform="translate(32,19)"/>
<path d="M0 0 C3.3 0 6.6 0 10 0 C9.67 33.33 9.34 66.66 9 101 C8.67 101 8.34 101 8 101 C7.2041921 95.41163159 6.85967789 90.02078131 6.88647461 84.38085938 C6.88632858 83.56039124 6.88618256 82.7399231 6.8860321 81.89459229 C6.88672294 79.2109503 6.89447611 76.5273797 6.90234375 73.84375 C6.90421088 71.97188352 6.90563339 70.10001656 6.90663147 68.22814941 C6.91043341 63.32257721 6.92024368 58.41703503 6.93133545 53.51147461 C6.9415997 48.4972372 6.9461398 43.4829949 6.95117188 38.46875 C6.9618682 28.64582021 6.97891648 18.82291261 7 9 C6.01 8.67 5.02 8.34 4 8 C4.33 5.69 4.66 3.38 5 1 C3.35 1 1.7 1 0 1 C0 0.67 0 0.34 0 0 Z " fill="#5F73B5" transform="translate(96,23)"/>
<path d="M0 0 C15.51 0 31.02 0 47 0 C47.495 0.99 47.495 0.99 48 2 C45.12543208 2.33747548 42.25043941 2.67010463 39.375 3 C38.56675781 3.09539063 37.75851563 3.19078125 36.92578125 3.2890625 C32.59026261 3.78253617 28.37262689 4.11320717 24 4 C24 3.34 24 2.68 24 2 C16.74 2 9.48 2 2 2 C2 5.3 2 8.6 2 12 C1.34 12 0.68 12 0 12 C0 21.24 0 30.48 0 40 C0.66 40 1.32 40 2 40 C2.33 39.34 2.66 38.68 3 38 C3 38.99 3 39.98 3 41 C1.35 40.67 -0.3 40.34 -2 40 C-2.27858313 6.8357494 -2.27858313 6.8357494 0 0 Z " fill="#B1B1B0" transform="translate(32,21)"/>
<path d="M0 0 C7.35028773 0.88203453 14.67349017 1.94012568 22 3 C22 5.31 22 7.62 22 10 C19.69 10 17.38 10 15 10 C15 9.01 15 8.02 15 7 C14.34 7 13.68 7 13 7 C12.67 7.99 12.34 8.98 12 10 C10.948125 9.814375 9.89625 9.62875 8.8125 9.4375 C5.42880118 9.04920669 3.23574112 9.11752515 0 10 C0 6.7 0 3.4 0 0 Z " fill="#131210" transform="translate(81,148)"/>
<path d="M0 0 C1.37478516 0.01740234 1.37478516 0.01740234 2.77734375 0.03515625 C3.69644531 0.04417969 4.61554688 0.05320312 5.5625 0.0625 C6.27277344 0.07410156 6.98304687 0.08570312 7.71484375 0.09765625 C7.71484375 0.42765625 7.71484375 0.75765625 7.71484375 1.09765625 C4.74484375 1.09765625 1.77484375 1.09765625 -1.28515625 1.09765625 C-1.16764307 8.30603071 -1.04280997 15.51425152 -0.9128418 22.72241211 C-0.86948023 25.17550774 -0.82780606 27.62863378 -0.7878418 30.08178711 C-0.73016904 33.60409726 -0.66646573 37.12625409 -0.6015625 40.6484375 C-0.58485001 41.74851639 -0.56813751 42.84859528 -0.55091858 43.98200989 C-0.53097336 45.00284164 -0.51102814 46.0236734 -0.49047852 47.07543945 C-0.47493423 47.97478714 -0.45938995 48.87413483 -0.44337463 49.80073547 C-0.37028286 52.25942094 -0.37028286 52.25942094 0.71484375 55.09765625 C3.35484375 55.42765625 5.99484375 55.75765625 8.71484375 56.09765625 C8.71484375 56.42765625 8.71484375 56.75765625 8.71484375 57.09765625 C5.74484375 57.09765625 2.77484375 57.09765625 -0.28515625 57.09765625 C-0.28515625 57.75765625 -0.28515625 58.41765625 -0.28515625 59.09765625 C-2.26515625 59.09765625 -4.24515625 59.09765625 -6.28515625 59.09765625 C-4.30515625 58.60265625 -4.30515625 58.60265625 -2.28515625 58.09765625 C-2.44741699 57.34911377 -2.60967773 56.60057129 -2.77685547 55.8293457 C-3.4790785 50.6739763 -3.42769637 45.58766526 -3.41796875 40.390625 C-3.41892548 39.26948807 -3.4198822 38.14835114 -3.42086792 36.99324036 C-3.42154667 34.63229313 -3.4197137 32.27134401 -3.41552734 29.91040039 C-3.41014968 26.2807197 -3.41549552 22.65116135 -3.421875 19.02148438 C-3.42121466 16.72786431 -3.4199344 14.43424432 -3.41796875 12.140625 C-3.41999298 11.04904587 -3.42201721 9.95746674 -3.42410278 8.83280945 C-3.42095062 7.83119278 -3.41779846 6.82957611 -3.41455078 5.79760742 C-3.41375519 4.91191574 -3.41295959 4.02622406 -3.41213989 3.11369324 C-3.22932627 0.2112799 -2.91135136 0.12441672 0 0 Z " fill="#3E537E" transform="translate(108.28515625,73.90234375)"/>
<path d="M0 0 C11.67567568 0 11.67567568 0 16 4 C17.375 6.75 17.375 6.75 18 9 C15.5 7.6875 15.5 7.6875 13 6 C13 5.01 13 4.02 13 3 C12.38511719 2.93941406 11.77023438 2.87882812 11.13671875 2.81640625 C10.32847656 2.73261719 9.52023438 2.64882813 8.6875 2.5625 C7.88699219 2.48128906 7.08648437 2.40007813 6.26171875 2.31640625 C4 2 4 2 1 1 C1.33 11.89 1.66 22.78 2 34 C4.475 33.505 4.475 33.505 7 33 C7.33 33.33 7.66 33.66 8 34 C9.91424457 33.8981629 9.91424457 33.8981629 12.0625 33.5625 C13.361875 33.376875 14.66125 33.19125 16 33 C16 31.68 16 30.36 16 29 C17.65 28.34 19.3 27.68 21 27 C19.01057278 31.47621125 16.80948455 35.11629824 12.3125 37.3125 C9 38 9 38 0 38 C0 25.46 0 12.92 0 0 Z " fill="#050D1F" transform="translate(107,28)"/>
<path d="M0 0 C0.33 0 0.66 0 1 0 C1.02333048 13.93379272 1.04091349 27.86758243 1.05181217 41.80139065 C1.05704168 48.2706768 1.06414056 54.73994989 1.07543945 61.20922852 C1.08626592 67.446703 1.09227632 73.68416487 1.09487724 79.92164803 C1.09673193 82.30720277 1.10035336 84.69275679 1.10573006 87.0783062 C1.11293729 90.40695591 1.11399108 93.73555279 1.11352539 97.06420898 C1.11712067 98.06114273 1.12071594 99.05807648 1.12442017 100.08522034 C1.1230455 100.98690948 1.12167084 101.88859863 1.12025452 102.81761169 C1.12117631 103.6057447 1.1220981 104.3938777 1.12304783 105.20589352 C1 107 1 107 0 108 C-2.53049402 108.07313567 -5.03304837 108.09247527 -7.5625 108.0625 C-8.27341797 108.05798828 -8.98433594 108.05347656 -9.71679688 108.04882812 C-11.47790013 108.03700864 -13.23896036 108.01907263 -15 108 C-15 107.34 -15 106.68 -15 106 C-10.38 105.67 -5.76 105.34 -1 105 C-0.67 70.35 -0.34 35.7 0 0 Z " fill="#DADADA" transform="translate(68,25)"/>
<path d="M0 0 C5.45769811 -0.11138159 10.61509359 0.08342019 16 1 C16 1.66 16 2.32 16 3 C17.32 3 18.64 3 20 3 C21.1555538 13.33807949 21.09776087 23.61562308 21 34 C20.67 34 20.34 34 20 34 C18.8258212 24.96301675 17.71005128 16.13338455 18 7 C13.89776415 5.98459888 13.89776415 5.98459888 10 7 C7.875 6.0625 7.875 6.0625 6 5 C5.67 5.66 5.34 6.32 5 7 C0 1.125 0 1.125 0 0 Z " fill="#C3D2CF" transform="translate(118,27)"/>
<path d="M0 0 C1.41152344 0.10828125 1.41152344 0.10828125 2.8515625 0.21875 C4.71941406 0.35796875 4.71941406 0.35796875 6.625 0.5 C8.46964844 0.63921875 8.46964844 0.63921875 10.3515625 0.78125 C13.58037857 0.97484069 16.76678675 1.03979339 20 1 C20 3.31 20 5.62 20 8 C17.3333581 9.33332095 15.83319697 8.67102033 13 8 C12.67 7.01 12.34 6.02 12 5 C11.01 6.485 11.01 6.485 10 8 C7.3984375 8.51171875 7.3984375 8.51171875 4.375 8.6875 C2.87066406 8.78611328 2.87066406 8.78611328 1.3359375 8.88671875 C0.56507812 8.92410156 -0.20578125 8.96148437 -1 9 C-0.67 6.03 -0.34 3.06 0 0 Z " fill="#292929" transform="translate(44,150)"/>
<path d="M0 0 C0.33 0.99 0.66 1.98 1 3 C3.97 3.495 3.97 3.495 7 4 C7 5.98 7 7.96 7 10 C5.02 10.99 5.02 10.99 3 12 C3 12.66 3 13.32 3 14 C-1 14 -1 14 -4 13 C-4 12.34 -4 11.68 -4 11 C-4.99 11 -5.98 11 -7 11 C-8.10844919 7.67465243 -7.84454356 5.37817425 -7 2 C-4.69 1.34 -2.38 0.68 0 0 Z " fill="#0F0F11" transform="translate(118,147)"/>
<path d="M0 0 C7.92 0 15.84 0 24 0 C24 1.65 24 3.3 24 5 C25.98 5 27.96 5 30 5 C30.33 5.99 30.66 6.98 31 8 C29.68 8 28.36 8 27 8 C27 7.34 27 6.68 27 6 C25.95199219 6 24.90398437 6 23.82421875 6 C8.625 6 8.625 6 1 5 C2.32 4.01 3.64 3.02 5 2 C3.35 2 1.7 2 0 2 C0 1.34 0 0.68 0 0 Z " fill="#547596" transform="translate(107,22)"/>
<path d="M0 0 C0.33 0 0.66 0 1 0 C1 4.95 1 9.9 1 15 C0.01 14.67 -0.98 14.34 -2 14 C-2 13.34 -2 12.68 -2 12 C-6.455 11.01 -6.455 11.01 -11 10 C-11 8.68 -11 7.36 -11 6 C-11.66 6 -12.32 6 -13 6 C-13 5.01 -13 4.02 -13 3 C-10.27157939 1.63578969 -8.39046682 2.12192789 -5.375 2.4375 C-4.37210938 2.53933594 -3.36921875 2.64117188 -2.3359375 2.74609375 C-1.56507813 2.82988281 -0.79421875 2.91367187 0 3 C0 2.01 0 1.02 0 0 Z " fill="#19A466" transform="translate(153,22)"/>
<path d="M0 0 C5.61 0.66 11.22 1.32 17 2 C17 2.33 17 2.66 17 3 C15.02 3.33 13.04 3.66 11 4 C10.67 30.4 10.34 56.8 10 84 C9.67 84 9.34 84 9 84 C8.99191315 83.11130219 8.98382629 82.22260437 8.97549438 81.30697632 C8.89746432 72.92051975 8.81014822 64.53422188 8.71247292 56.1479702 C8.662586 51.83679785 8.61625542 47.5256491 8.578125 43.21435547 C8.54117595 39.05156837 8.49479017 34.88898243 8.44193649 30.72636795 C8.42344357 29.14044356 8.40831688 27.55447613 8.39665604 25.96848679 C8.37970583 23.74229201 8.35065075 21.5165528 8.31884766 19.29052734 C8.30552399 18.02477875 8.29220032 16.75903015 8.2784729 15.45492554 C7.88437219 10.56544214 6.71524941 7.07287411 4 3 C1.94996045 1.80767387 1.94996045 1.80767387 0 1 C0 0.67 0 0.34 0 0 Z " fill="#7065C0" transform="translate(79,21)"/>
<path d="M0 0 C1.32 0.33 2.64 0.66 4 1 C4 3.64 4 6.28 4 9 C-1.35135135 10.21621622 -1.35135135 10.21621622 -4.25 9.25 C-6 8 -6 8 -8 5 C-8.66 5 -9.32 5 -10 5 C-10.33 6.32 -10.66 7.64 -11 9 C-11.99 9 -12.98 9 -14 9 C-14 6.69 -14 4.38 -14 2 C-9.38 2 -4.76 2 0 2 C0 1.34 0 0.68 0 0 Z " fill="#222222" transform="translate(142,149)"/>
<path d="M0 0 C1.875 0.1875 1.875 0.1875 4 1 C6.60541085 5.57562175 6.2687758 10.27547365 6.22705078 15.38012695 C6.22734283 16.31719986 6.22763489 17.25427277 6.22793579 18.21974182 C6.22654524 21.30934997 6.21099685 24.39871535 6.1953125 27.48828125 C6.1915814 29.63347746 6.18873488 31.77867538 6.18673706 33.9238739 C6.17910829 39.56438926 6.15946621 45.20480129 6.1373291 50.84527588 C6.11685444 56.60321658 6.10773187 62.361174 6.09765625 68.11914062 C6.07621968 79.41280576 6.04209277 90.70639428 6 102 C5.01 102.495 5.01 102.495 4 103 C4.00444122 101.82093582 4.00888245 100.64187164 4.01345825 99.42707825 C4.05399372 88.31795795 4.08397933 77.20885264 4.10362434 66.09967518 C4.11406352 60.3882775 4.12822529 54.6769395 4.15087891 48.96557617 C4.17260232 43.45427043 4.18456762 37.94302211 4.18975449 32.43167686 C4.19345113 30.3285297 4.20066967 28.22538569 4.21146011 26.12226295 C4.22596823 23.17754945 4.22797821 20.23307355 4.22705078 17.28833008 C4.23424133 16.4179863 4.24143188 15.54764252 4.24884033 14.65092468 C4.2342234 10.36462893 4.15260255 6.84081565 2 3 C1.34 2.67 0.68 2.34 0 2 C0 1.34 0 0.68 0 0 Z " fill="#E3DFF6" transform="translate(80,23)"/>
<path d="M0 0 C0.66 0 1.32 0 2 0 C2.042721 1.66611905 2.04063832 3.33382885 2 5 C-0.17947652 7.17947652 -5.55891199 6.45337729 -8.62890625 6.60546875 C-12.10944277 6.4970552 -12.10944277 6.4970552 -15 8 C-17.16480797 8.0989294 -19.33293785 8.129711 -21.5 8.125 C-22.6859375 8.12757813 -23.871875 8.13015625 -25.09375 8.1328125 C-28 8 -28 8 -29 7 C-31.66426685 6.83996512 -34.30560428 6.74057111 -36.97265625 6.68359375 C-37.77029892 6.66281265 -38.56794159 6.64203156 -39.38975525 6.62062073 C-41.94724611 6.55503842 -44.5048428 6.49620033 -47.0625 6.4375 C-48.79232882 6.39432301 -50.52214679 6.35070899 -52.25195312 6.30664062 C-56.5011926 6.19934828 -60.7505389 6.09810574 -65 6 C-65 5.67 -65 5.34 -65 5 C-43.55 4.67 -22.1 4.34 0 4 C0 2.68 0 1.36 0 0 Z " fill="#0A0A18" transform="translate(117,130)"/>
<path d="M0 0 C1.91541138 -0.10841951 3.83259773 -0.18578079 5.75 -0.25 C6.81734375 -0.29640625 7.8846875 -0.3428125 8.984375 -0.390625 C12.63802112 0.08264522 13.72228105 1.19155042 16 4 C15.01 4.495 15.01 4.495 14 5 C12.33483699 4.29550796 10.66996443 3.58571649 9.046875 2.7890625 C6.41319392 1.77378849 3.78197573 1.436546 1 1 C1.11791938 7.58378407 1.24274327 14.16741157 1.37231445 20.75097656 C1.41556337 22.98955332 1.45724536 25.22816094 1.49731445 27.46679688 C1.55526074 30.68889656 1.61888466 33.91084239 1.68359375 37.1328125 C1.70030624 38.12991241 1.71701874 39.12701233 1.73423767 40.15432739 C1.83416289 44.86632769 2.04107292 49.36575453 3 54 C3.99 54.33 4.98 54.66 6 55 C4.35 54.67 2.7 54.34 1 54 C0.00706191 51.02118573 -0.12119785 49.08512761 -0.11352539 45.9777832 C-0.11344986 44.95695145 -0.11337433 43.93611969 -0.11329651 42.88435364 C-0.10813522 41.78427475 -0.10297394 40.68419586 -0.09765625 39.55078125 C-0.0962413 38.4230278 -0.09482635 37.29527435 -0.09336853 36.13334656 C-0.0877647 32.52637088 -0.07521153 28.91945696 -0.0625 25.3125 C-0.05748549 22.86914152 -0.0529225 20.42578207 -0.04882812 17.98242188 C-0.03779403 11.98826013 -0.02105215 5.99413448 0 0 Z " fill="#0B1227" transform="translate(107,75)"/>
<path d="M0 0 C1.134375 0.020625 2.26875 0.04125 3.4375 0.0625 C3.1075 1.3825 2.7775 2.7025 2.4375 4.0625 C1.7775 4.0625 1.1175 4.0625 0.4375 4.0625 C0.1075 6.0425 -0.2225 8.0225 -0.5625 10.0625 C-3.2025 10.3925 -5.8425 10.7225 -8.5625 11.0625 C-10.85263653 7.6272952 -10.74092973 6.077169 -10.5625 2.0625 C-9.2425 2.3925 -7.9225 2.7225 -6.5625 3.0625 C-6.5625 4.3825 -6.5625 5.7025 -6.5625 7.0625 C-5.9025 7.0625 -5.2425 7.0625 -4.5625 7.0625 C-4.583125 6.093125 -4.60375 5.12375 -4.625 4.125 C-4.53542298 -0.264274 -4.48106193 0.07861512 0 0 Z " fill="#2B2A2D" transform="translate(76.5625,147.9375)"/>
<path d="M0 0 C3.3 0 6.6 0 10 0 C10 0.99 10 1.98 10 3 C-11.45 3 -32.9 3 -55 3 C-55 2.67 -55 2.34 -55 2 C-36.85 2 -18.7 2 0 2 C0 1.34 0 0.68 0 0 Z " fill="#767592" transform="translate(108,131)"/>
<path d="M0 0 C0.33 0 0.66 0 1 0 C3.29612756 14.59681093 3.29612756 14.59681093 3 22 C-0.82622743 20.4411666 -3.25147379 18.04566418 -6 15 C-6.33 14.01 -6.66 13.02 -7 12 C-8.98723268 11.29618843 -10.98777953 10.6288189 -13 10 C-13.33 9.34 -13.66 8.68 -14 8 C-12.22604492 8.42466497 -10.45589369 8.8652409 -8.6875 9.3125 C-7.70136719 9.55613281 -6.71523437 9.79976562 -5.69921875 10.05078125 C-3 11 -3 11 0 14 C0 9.38 0 4.76 0 0 Z " fill="#329A6B" transform="translate(154,23)"/>
<path d="M0 0 C0 1.98 0 3.96 0 6 C-2.375 6.625 -2.375 6.625 -5 7 C-5.66 6.34 -6.32 5.68 -7 5 C-8.67422986 5.29299023 -10.34178227 5.62690101 -12 6 C-12.66 5.67 -13.32 5.34 -14 5 C-13.67 3.35 -13.34 1.7 -13 0 C-8.38926889 -1.29676812 -4.66159911 -0.71109139 0 0 Z " fill="#2B2B2B" transform="translate(170,151)"/>
<path d="M0 0 C2 1 2 1 2.8515625 3.28515625 C3.10679687 4.20167969 3.36203125 5.11820313 3.625 6.0625 C3.88539063 6.98160156 4.14578125 7.90070312 4.4140625 8.84765625 C4.60742188 9.55792969 4.80078125 10.26820312 5 11 C4.67 11 4.34 11 4 11 C3.67 20.9 3.34 30.8 3 41 C1.515 41.495 1.515 41.495 0 42 C-3.08089673 39.22719294 -4.68775452 36.93673644 -6 33 C-2.23145777 34.25618074 -1.92041544 35.66014706 0 39 C0.66 39.33 1.32 39.66 2 40 C1.67 29.44 1.34 18.88 1 8 C0.34 8 -0.32 8 -1 8 C-1 6.68 -1 5.36 -1 4 C-0.34 4 0.32 4 1 4 C0.67 2.68 0.34 1.36 0 0 Z " fill="#1B2F2F" transform="translate(129,47)"/>
<path d="M0 0 C1.1577506 3.47325181 1.06866652 6.36067448 1 10 C-2.3 9.01 -5.6 8.02 -9 7 C-8 3 -8 3 -5.625 1.25 C-3 0 -3 0 0 0 Z " fill="#338E9C" transform="translate(129,67)"/>
<path d="M0 0 C0.66 0 1.32 0 2 0 C3.46098845 2.9219769 3.11134901 5.49893475 3.09765625 8.7578125 C3.0962413 9.42086395 3.09482635 10.08391541 3.09336853 10.76705933 C3.08776754 12.88641863 3.075215 15.00567259 3.0625 17.125 C3.05748512 18.56119639 3.05292219 19.99739444 3.04882812 21.43359375 C3.03779782 24.95576345 3.02053259 28.47787145 3 32 C2.01 31.67 1.02 31.34 0 31 C-0.309375 30.195625 -0.61875 29.39125 -0.9375 28.5625 C-1.76608159 25.85842507 -1.76608159 25.85842507 -4.125 24.6875 C-4.74375 24.460625 -5.3625 24.23375 -6 24 C-3 24 -3 24 -1 25 C-1 25.66 -1 26.32 -1 27 C-0.34 26.67 0.32 26.34 1 26 C1.33 18.41 1.66 10.82 2 3 C0.02 4.32 -1.96 5.64 -4 7 C-2.79618552 4.50638429 -1.54571278 2.31856917 0 0 Z " fill="#3E6C6D" transform="translate(128,55)"/>
<path d="M0 0 C0.33 0.66 0.66 1.32 1 2 C4.63 2 8.26 2 12 2 C11.01 2.495 11.01 2.495 10 3 C10 4.32 10 5.64 10 7 C8.72125 7.144375 7.4425 7.28875 6.125 7.4375 C3.74307106 7.70642746 2.15547309 7.92226346 0 9 C0 6.03 0 3.06 0 0 Z " fill="#597AA1" transform="translate(105,66)"/>
<path d="M0 0 C1.32 0.33 2.64 0.66 4 1 C4 3.64 4 6.28 4 9 C-1.41538462 10.23076923 -1.41538462 10.23076923 -4.375 9.0625 C-4.91125 8.711875 -5.4475 8.36125 -6 8 C-5.67 7.34 -5.34 6.68 -5 6 C-4.01 6.33 -3.02 6.66 -2 7 C-1.34 4.69 -0.68 2.38 0 0 Z " fill="#181818" transform="translate(142,149)"/>
<path d="M0 0 C1.65 0 3.3 0 5 0 C5 1.32 5 2.64 5 4 C5.66 4 6.32 4 7 4 C6.67 5.65 6.34 7.3 6 9 C4.02 9 2.04 9 0 9 C-1.10844919 5.67465243 -0.84454356 3.37817425 0 0 Z " fill="#3F3F3F" transform="translate(111,149)"/>
<path d="M0 0 C0.66 0.33 1.32 0.66 2 1 C1.67 2.98 1.34 4.96 1 7 C0.67 6.01 0.34 5.02 0 4 C-0.66 4 -1.32 4 -2 4 C-2 5.65 -2 7.3 -2 9 C-3.32 8.34 -4.64 7.68 -6 7 C-6 6.01 -6 5.02 -6 4 C-6.66 4 -7.32 4 -8 4 C-8 3.01 -8 2.02 -8 1 C-5.26094655 -0.36952673 -3.02912668 -0.12621361 0 0 Z " fill="#1AA873" transform="translate(148,24)"/>
<path d="M0 0 C0.66 0 1.32 0 2 0 C2 2.64 2 5.28 2 8 C7.61 8 13.22 8 19 8 C15.37504158 9.81247921 14.4048294 10.24864042 10.671875 10.1953125 C9.87265625 10.18886719 9.0734375 10.18242187 8.25 10.17578125 C7.425 10.15902344 6.6 10.14226562 5.75 10.125 C4.90953125 10.11597656 4.0690625 10.10695312 3.203125 10.09765625 C1.13529396 10.07415817 -0.93238995 10.03828908 -3 10 C-2.68289062 9.40703125 -2.36578125 8.8140625 -2.0390625 8.203125 C-0.76662181 5.50516805 -0.40121626 2.94225259 0 0 Z " fill="#6D6CBD" transform="translate(87,123)"/>
<path d="M0 0 C2.64 0 5.28 0 8 0 C8 2.31 8 4.62 8 7 C5.69 7 3.38 7 1 7 C0.67 4.69 0.34 2.38 0 0 Z " fill="#353633" transform="translate(95,151)"/>
<path d="M0 0 C4.95 0 9.9 0 15 0 C15 1.65 15 3.3 15 5 C13.18674449 4.88648483 11.37436643 4.75887039 9.5625 4.625 C8.04849609 4.52058594 8.04849609 4.52058594 6.50390625 4.4140625 C5.67761719 4.27742188 4.85132812 4.14078125 4 4 C3.67 3.34 3.34 2.68 3 2 C2.01 1.34 1.02 0.68 0 0 Z " fill="#468392" transform="translate(116,22)"/>
<path d="M0 0 C0.33 0 0.66 0 1 0 C1 5.94 1 11.88 1 18 C0.34 18 -0.32 18 -1 18 C-0.938125 18.9075 -0.87625 19.815 -0.8125 20.75 C-1.01672076 24.28982642 -1.64551835 25.44931155 -4 28 C-5.32 27.67 -6.64 27.34 -8 27 C-7.01 26.67 -6.02 26.34 -5 26 C-3.97299556 23.67108904 -3.97299556 23.67108904 -3.3125 20.9375 C-3.06113281 20.01839844 -2.80976562 19.09929687 -2.55078125 18.15234375 C-2.27814453 17.08693359 -2.27814453 17.08693359 -2 16 C-1.34 16 -0.68 16 0 16 C0 10.72 0 5.44 0 0 Z " fill="#786DC3" transform="translate(88,105)"/>
<path d="M0 0 C8.99189919 -0.4860486 8.99189919 -0.4860486 13.5 1.6875 C16.07068171 4.06538058 17.0717492 5.65829712 18 9 C15.5 7.6875 15.5 7.6875 13 6 C13 5.01 13 4.02 13 3 C12.38511719 2.93941406 11.77023438 2.87882812 11.13671875 2.81640625 C10.32847656 2.73261719 9.52023438 2.64882813 8.6875 2.5625 C7.88699219 2.48128906 7.08648437 2.40007813 6.26171875 2.31640625 C4 2 4 2 1 1 C1 4.3 1 7.6 1 11 C0.67 11 0.34 11 0 11 C0 7.37 0 3.74 0 0 Z " fill="#1E2634" transform="translate(107,28)"/>
<path d="M0 0 C2.14336161 3.4766338 2.21277626 6.21229195 2.125 10.25 C2.10695312 11.32765625 2.08890625 12.4053125 2.0703125 13.515625 C2.04710937 14.33546875 2.02390625 15.1553125 2 16 C1.34 16 0.68 16 0 16 C-0.33 13.36 -0.66 10.72 -1 8 C-1.66 8 -2.32 8 -3 8 C-2.45276317 4.62537285 -1.9451 2.91765 0 0 Z " fill="#E9EDEB" transform="translate(136,45)"/>
<path d="M0 0 C3.3 0.33 6.6 0.66 10 1 C10 1.33 10 1.66 10 2 C8.35 2 6.7 2 5 2 C5.33 3.65 5.66 5.3 6 7 C3.69 7.66 1.38 8.32 -1 9 C-0.67 6.03 -0.34 3.06 0 0 Z " fill="#353535" transform="translate(44,150)"/>
<path d="M0 0 C0.99 0.66 1.98 1.32 3 2 C3 2.66 3 3.32 3 4 C2.34 4 1.68 4 1 4 C1.01571045 4.83249268 1.0314209 5.66498535 1.04760742 6.52270508 C1.09876642 9.61447856 1.1363648 12.70603618 1.16479492 15.7980957 C1.18728333 17.79327701 1.22540198 19.78826213 1.26367188 21.78320312 C1.27817383 23.66362305 1.27817383 23.66362305 1.29296875 25.58203125 C1.3086792 26.73936768 1.32438965 27.8967041 1.34057617 29.08911133 C1 32 1 32 -0.51831055 33.90112305 C-1.00726807 34.26375244 -1.49622559 34.62638184 -2 35 C-2.495 33.515 -2.495 33.515 -3 32 C-2.34 31.67 -1.68 31.34 -1 31 C-0.67 20.77 -0.34 10.54 0 0 Z " fill="#121414" transform="translate(132,57)"/>
<path d="M0 0 C1.875 0.1875 1.875 0.1875 4 1 C6.00755876 4.85372554 6.23608315 8.0932277 6.1953125 12.39453125 C6.18564453 14.19760742 6.18564453 14.19760742 6.17578125 16.03710938 C6.15902344 17.28298828 6.14226562 18.52886719 6.125 19.8125 C6.11597656 21.07771484 6.10695313 22.34292969 6.09765625 23.64648438 C6.07412394 26.76451564 6.04124545 29.88216097 6 33 C5.67 33 5.34 33 5 33 C4.98018066 32.26885986 4.96036133 31.53771973 4.93994141 30.78442383 C4.84447086 27.46009731 4.73488034 24.13638014 4.625 20.8125 C4.5940625 19.66201172 4.563125 18.51152344 4.53125 17.32617188 C4.49257812 16.21435547 4.45390625 15.10253906 4.4140625 13.95703125 C4.3826416 12.93585205 4.3512207 11.91467285 4.31884766 10.86254883 C3.98749353 7.88771949 3.34020331 5.67058284 2 3 C1.34 2.67 0.68 2.34 0 2 C0 1.34 0 0.68 0 0 Z " fill="#D9D1F0" transform="translate(80,23)"/>
<path d="M0 0 C0.33 0 0.66 0 1 0 C1 6.93 1 13.86 1 21 C1.99 21 2.98 21 4 21 C3.125 25.75 3.125 25.75 2 28 C1.34 28 0.68 28 0 28 C0 18.76 0 9.52 0 0 Z " fill="#DEDEDE" transform="translate(32,33)"/>
<path d="M0 0 C1.2065625 0.0309375 1.2065625 0.0309375 2.4375 0.0625 C2.4375 2.3725 2.4375 4.6825 2.4375 7.0625 C0.7875 7.0625 -0.8625 7.0625 -2.5625 7.0625 C-2.94383299 5.0710944 -3.27575582 3.06970923 -3.5625 1.0625 C-2.5625 0.0625 -2.5625 0.0625 0 0 Z " fill="#303030" transform="translate(151.5625,150.9375)"/>
<path d="M0 0 C1.2065625 0.0309375 1.2065625 0.0309375 2.4375 0.0625 C2.4375 2.0425 2.4375 4.0225 2.4375 6.0625 C0.7875 6.3925 -0.8625 6.7225 -2.5625 7.0625 C-2.94383299 5.0710944 -3.27575582 3.06970923 -3.5625 1.0625 C-2.5625 0.0625 -2.5625 0.0625 0 0 Z " fill="#5C5C5C" transform="translate(122.5625,150.9375)"/>
<path d="M0 0 C0.33 0 0.66 0 1 0 C3.29612756 14.59681093 3.29612756 14.59681093 3 22 C-0.16115776 20.63016497 -0.9927092 20.0109362 -3 17 C-2.01 17.33 -1.02 17.66 0 18 C0 12.06 0 6.12 0 0 Z " fill="#2A6147" transform="translate(154,23)"/>
<path d="M0 0 C0.99 0.33 1.98 0.66 3 1 C2.67 2.32 2.34 3.64 2 5 C2.66 5 3.32 5 4 5 C4.33 5.99 4.66 6.98 5 8 C3.68 8 2.36 8 1 8 C1 11.63 1 15.26 1 19 C0.67 19 0.34 19 0 19 C-0.19476139 16.39619004 -0.38108614 13.79224467 -0.5625 11.1875 C-0.61857422 10.44951172 -0.67464844 9.71152344 -0.73242188 8.95117188 C-0.95769724 5.63211484 -1.06255812 3.18767436 0 0 Z " fill="#3E8C77" transform="translate(138,23)"/>
<path d="M0 0 C3.3 0 6.6 0 10 0 C9.5206753 4.31392226 8.2542015 6.16569547 5 9 C3.90341064 5.71023192 4.20046862 4.28696233 5 1 C3.35 1 1.7 1 0 1 C0 0.67 0 0.34 0 0 Z " fill="#6270BA" transform="translate(96,23)"/>
<path d="M0 0 C1.9375 0.375 1.9375 0.375 4 1 C4.33 1.66 4.66 2.32 5 3 C5.99 3.33 6.98 3.66 8 4 C6.02 5.32 4.04 6.64 2 8 C1.01 7.34 0.02 6.68 -1 6 C-0.67 4.02 -0.34 2.04 0 0 Z " fill="#121212" transform="translate(157,156)"/>
<path d="M0 0 C0.33 0 0.66 0 1 0 C1.99 2.97 2.98 5.94 4 9 C6.64 9.33 9.28 9.66 12 10 C12 10.33 12 10.66 12 11 C9.03 11 6.06 11 3 11 C3 11.66 3 12.32 3 13 C1.02 13 -0.96 13 -3 13 C-1.68 12.67 -0.36 12.34 1 12 C0.67 8.04 0.34 4.08 0 0 Z " fill="#626A92" transform="translate(105,120)"/>
<path d="M0 0 C1.98 0 3.96 0 6 0 C6 1.65 6 3.3 6 5 C4.35 5.33 2.7 5.66 1 6 C0.67 4.02 0.34 2.04 0 0 Z " fill="#616161" transform="translate(49,152)"/>
<path d="M0 0 C1.65 0 3.3 0 5 0 C5.33 1.98 5.66 3.96 6 6 C5.01 6.33 4.02 6.66 3 7 C3 6.34 3 5.68 3 5 C0.525 4.01 0.525 4.01 -2 3 C-1.34 2.67 -0.68 2.34 0 2 C0 1.34 0 0.68 0 0 Z " fill="#448A89" transform="translate(124,75)"/>
<path d="M0 0 C1.32 0 2.64 0 4 0 C4 2.64 4 5.28 4 8 C2.68 8 1.36 8 0 8 C0 5.36 0 2.72 0 0 Z " fill="#464546" transform="translate(81,150)"/>
<path d="M0 0 C1.65 0.33 3.3 0.66 5 1 C4.67 2.65 4.34 4.3 4 6 C2.35 5.67 0.7 5.34 -1 5 C-0.67 3.35 -0.34 1.7 0 0 Z " fill="#60605C" transform="translate(88,151)"/>
<path d="M0 0 C0.66 0 1.32 0 2 0 C2 0.99 2 1.98 2 3 C3.65 3 5.3 3 7 3 C7 4.32 7 5.64 7 7 C4.69 6.67 2.38 6.34 0 6 C-1 3 -1 3 0 0 Z " fill="#090909" transform="translate(94,155)"/>
<path d="M0 0 C6.43311296 -0.09507063 12.65758005 -0.15316726 19 1 C19.33 1.99 19.66 2.98 20 4 C18.68 4 17.36 4 16 4 C16 3.34 16 2.68 16 2 C10.72 1.67 5.44 1.34 0 1 C0 0.67 0 0.34 0 0 Z " fill="#549494" transform="translate(118,26)"/>
<path d="M0 0 C-3.75 3.875 -3.75 3.875 -6 5 C-6 4.34 -6 3.68 -6 3 C-9.14191424 4.53604696 -12.08596738 6.05731159 -15 8 C-13.76387114 4.15426577 -11.37142111 2.62019666 -7.88671875 0.75 C-5.2056087 -0.31578288 -2.84144377 -0.27721403 0 0 Z " fill="#585857" transform="translate(62,25)"/>
<path d="M0 0 C5.45769811 -0.11138159 10.61509359 0.08342019 16 1 C16 1.33 16 1.66 16 2 C12.04 2 8.08 2 4 2 C3.67 2.66 3.34 3.32 3 4 C1.97895449 3.02149805 0.9793879 2.02019573 0 1 C0 0.67 0 0.34 0 0 Z " fill="#9FC9CE" transform="translate(118,27)"/>
<path d="M0 0 C3.3 0 6.6 0 10 0 C10 0.99 10 1.98 10 3 C6.7 2.67 3.4 2.34 0 2 C0 1.34 0 0.68 0 0 Z " fill="#A3A1AE" transform="translate(108,131)"/>
<path d="M0 0 C0.66 0 1.32 0 2 0 C2 2.64 2 5.28 2 8 C3.32 8.33 4.64 8.66 6 9 C3.36 9 0.72 9 -2 9 C-1.34 6.03 -0.68 3.06 0 0 Z " fill="#6E60C6" transform="translate(87,123)"/>
<path d="M0 0 C1.98 0 3.96 0 6 0 C6 4.29 6 8.58 6 13 C5.67 13 5.34 13 5 13 C5 9.7 5 6.4 5 3 C3.35 2.67 1.7 2.34 0 2 C0 1.34 0 0.68 0 0 Z " fill="#E6EFF1" transform="translate(131,31)"/>
<path d="M0 0 C0.66 0 1.32 0 2 0 C2.66 2.31 3.32 4.62 4 7 C2.35 7.66 0.7 8.32 -1 9 C-0.67 6.03 -0.34 3.06 0 0 Z " fill="#080808" transform="translate(154,153)"/>
<path d="M0 0 C1.32 0.33 2.64 0.66 4 1 C4 2.98 4 4.96 4 7 C2.68 6.67 1.36 6.34 0 6 C0 4.02 0 2.04 0 0 Z " fill="#545454" transform="translate(66,150)"/>
<path d="M0 0 C1.32 0.33 2.64 0.66 4 1 C4 2.65 4 4.3 4 6 C2.68 6 1.36 6 0 6 C0 4.02 0 2.04 0 0 Z " fill="#707070" transform="translate(37,151)"/>
<path d="M0 0 C1.65 0 3.3 0 5 0 C5 1.65 5 3.3 5 5 C3.35 4.67 1.7 4.34 0 4 C0 2.68 0 1.36 0 0 Z " fill="#737373" transform="translate(156,152)"/>
<path d="M0 0 C0.99 0.33 1.98 0.66 3 1 C3 3.31 3 5.62 3 8 C2.01 8 1.02 8 0 8 C0 5.36 0 2.72 0 0 Z " fill="#454545" transform="translate(143,149)"/>
<path d="M0 0 C3.93774177 -0.36630156 5.56539771 -0.30233203 8.875 2 C9.926875 2.99 9.926875 2.99 11 4 C7.37 3.34 3.74 2.68 0 2 C0 1.34 0 0.68 0 0 Z " fill="#040411" transform="translate(108,76)"/>
<path d="M0 0 C1.32 0.33 2.64 0.66 4 1 C3.67 1.33 3.34 1.66 3 2 C3.99 2.33 4.98 2.66 6 3 C6 3.66 6 4.32 6 5 C4.02 5.33 2.04 5.66 0 6 C0 4.02 0 2.04 0 0 Z " fill="#0A090B" transform="translate(86,144)"/>
<path d="M0 0 C3.76854223 1.25618074 4.07958456 2.66014706 6 6 C6.66 6.33 7.32 6.66 8 7 C8 7.66 8 8.32 8 9 C4.68470727 8.01437243 3.25050621 7.34552581 1.1875 4.5 C0 2 0 2 0 0 Z " fill="#1A3739" transform="translate(123,80)"/>
<path d="M0 0 C2.97 0.99 5.94 1.98 9 3 C9 3.99 9 4.98 9 6 C9.66 6 10.32 6 11 6 C10.67 6.66 10.34 7.32 10 8 C9.01 7.34 8.02 6.68 7 6 C7 5.34 7 4.68 7 4 C6.030625 3.71125 5.06125 3.4225 4.0625 3.125 C1 2 1 2 0 0 Z " fill="#2C855F" transform="translate(140,31)"/>
<path d="M0 0 C4.95 0.99 4.95 0.99 10 2 C9.67 3.32 9.34 4.64 9 6 C8.01 6 7.02 6 6 6 C5.34 5.01 4.68 4.02 4 3 C1.94996045 1.80767387 1.94996045 1.80767387 0 1 C0 0.67 0 0.34 0 0 Z " fill="#7C70B1" transform="translate(79,21)"/>
<path d="M0 0 C2.375 0.25 2.375 0.25 5 1 C6.3125 3.0625 6.3125 3.0625 7 5 C4.69 4.34 2.38 3.68 0 3 C0 2.01 0 1.02 0 0 Z " fill="#0F2B3D" transform="translate(116,75)"/>
<path d="M0 0 C0.66 0.33 1.32 0.66 2 1 C2.94934202 3.92713788 3.23176473 5.42831368 2.0625 8.3125 C1.5365625 9.1478125 1.5365625 9.1478125 1 10 C1 9.34 1 8.68 1 8 C0.34 8 -0.32 8 -1 8 C-1 6.68 -1 5.36 -1 4 C-0.34 4 0.32 4 1 4 C0.67 2.68 0.34 1.36 0 0 Z " fill="#3D4243" transform="translate(129,47)"/>
<path d="M0 0 C1.31823302 0.59155331 2.62947051 1.19871463 3.9375 1.8125 C5.03384766 2.31716797 5.03384766 2.31716797 6.15234375 2.83203125 C8 4 8 4 9 7 C8.34 7 7.68 7 7 7 C7 6.34 7 5.68 7 5 C5.35 5 3.7 5 2 5 C1.34 3.35 0.68 1.7 0 0 Z " fill="#0C3421" transform="translate(139,31)"/>
<path d="M0 0 C2.475 0.495 2.475 0.495 5 1 C5.33 1.99 5.66 2.98 6 4 C4.02 4 2.04 4 0 4 C0 2.68 0 1.36 0 0 Z " fill="#339986" transform="translate(131,23)"/>
<path d="M0 0 C1.65 0 3.3 0 5 0 C5 1.32 5 2.64 5 4 C3.35 4 1.7 4 0 4 C0 2.68 0 1.36 0 0 Z " fill="#686868" transform="translate(58,152)"/>
<path d="M0 0 C1.32 0 2.64 0 4 0 C3.67 2.31 3.34 4.62 3 7 C2.34 7 1.68 7 1 7 C0.67 4.69 0.34 2.38 0 0 Z " fill="#686868" transform="translate(28,149)"/>
<path d="M0 0 C0.66 0 1.32 0 2 0 C2.33 1.65 2.66 3.3 3 5 C-0.63 5 -4.26 5 -8 5 C-8 4.67 -8 4.34 -8 4 C-5.36 4 -2.72 4 0 4 C0 2.68 0 1.36 0 0 Z " fill="#457293" transform="translate(115,69)"/>
<path d="M0 0 C0 4.38968456 -2.12805101 5.76905739 -5 9 C-5.99 8.67 -6.98 8.34 -8 8 C-7.01 7.34 -6.02 6.68 -5 6 C-4.7834375 5.01 -4.7834375 5.01 -4.5625 4 C-4 2 -4 2 -1.9375 0.75 C-1.298125 0.5025 -0.65875 0.255 0 0 Z " fill="#133737" transform="translate(127,55)"/>
<path d="M0 0 C1.32 0.33 2.64 0.66 4 1 C3.67 1.66 3.34 2.32 3 3 C3.66 3 4.32 3 5 3 C5 3.66 5 4.32 5 5 C3.35 4.67 1.7 4.34 0 4 C0 2.68 0 1.36 0 0 Z " fill="#5B5B5B" transform="translate(148,152)"/>
<path d="M0 0 C1.32 0 2.64 0 4 0 C4 1.32 4 2.64 4 4 C2.35 4 0.7 4 -1 4 C-0.67 2.68 -0.34 1.36 0 0 Z " fill="#838381" transform="translate(98,152)"/>
<path d="M0 0 C0.66 0 1.32 0 2 0 C2.33 1.65 2.66 3.3 3 5 C2.34 5 1.68 5 1 5 C0.67 5.99 0.34 6.98 0 8 C-1.32 7.67 -2.64 7.34 -4 7 C-3.01 6.67 -2.02 6.34 -1 6 C-1.020625 5.195625 -1.04125 4.39125 -1.0625 3.5625 C-1 1 -1 1 0 0 Z " fill="#1D1D19" transform="translate(93,150)"/>
<path d="M0 0 C1.32 0.33 2.64 0.66 4 1 C3.67 2.65 3.34 4.3 3 6 C2.01 6 1.02 6 0 6 C0 4.02 0 2.04 0 0 Z " fill="#777679" transform="translate(73,150)"/>
<path d="M0 0 C0.93065133 2.60582371 1.14917407 3.64198224 0.0625 6.25 C-0.4634375 7.11625 -0.4634375 7.11625 -1 8 C-2.32 7.67 -3.64 7.34 -5 7 C-4.01 6.67 -3.02 6.34 -2 6 C-0.77479736 2.99152582 -0.77479736 2.99152582 0 0 Z " fill="#9F95CC" transform="translate(85,125)"/>
<path d="M0 0 C0.33 0 0.66 0 1 0 C0.67 2.31 0.34 4.62 0 7 C-0.99 7.33 -1.98 7.66 -3 8 C-2.45276317 4.62537285 -1.9451 2.91765 0 0 Z " fill="#EFF3F1" transform="translate(136,45)"/>
<path d="M0 0 C1.65 0 3.3 0 5 0 C5 1.32 5 2.64 5 4 C3.35 3.67 1.7 3.34 0 3 C0 2.01 0 1.02 0 0 Z " fill="#636363" transform="translate(135,152)"/>
<path d="M0 0 C0.66 0 1.32 0 2 0 C2 0.99 2 1.98 2 3 C2.99 3 3.98 3 5 3 C4.67 4.32 4.34 5.64 4 7 C3.01 6.67 2.02 6.34 1 6 C1 5.34 1 4.68 1 4 C0.68521554 2.66216607 0.35412344 1.32796291 0 0 Z " fill="#747374" transform="translate(112,150)"/>
<path d="M0 0 C0 1.98 0 3.96 0 6 C-0.99 6 -1.98 6 -3 6 C-3.33 4.35 -3.66 2.7 -4 1 C-2 0 -2 0 0 0 Z " fill="#191919" transform="translate(44,150)"/>
<path d="M0 0 C1.98 0 3.96 0 6 0 C6 0.99 6 1.98 6 3 C3.69 3 1.38 3 -1 3 C-0.67 2.01 -0.34 1.02 0 0 Z " fill="#5E7AA5" transform="translate(108,23)"/>
<path d="M0 0 C1.32 0 2.64 0 4 0 C4 1.65 4 3.3 4 5 C3.01 5 2.02 5 1 5 C0.67 3.35 0.34 1.7 0 0 Z " fill="#6C6C6C" transform="translate(165,152)"/>
<path d="M0 0 C1.32 0 2.64 0 4 0 C3.67 1.65 3.34 3.3 3 5 C2.01 5 1.02 5 0 5 C0 3.35 0 1.7 0 0 Z " fill="#5F605C" transform="translate(128,151)"/>
</svg>
